<?xml version="1.0" encoding="UTF-8" standalone="no"?>
<svg
   xml:space="preserve"
   viewBox="0 0 690.83258 256.21078"
   version="1.1"
   id="svg1"
   sodipodi:docname="http-post_1.svg"
   width="690.83258"
   height="256.21078"
   inkscape:version="1.4.2 (f4327f4, 2025-05-13)"
   xmlns:inkscape="http://www.inkscape.org/namespaces/inkscape"
   xmlns:sodipodi="http://sodipodi.sourceforge.net/DTD/sodipodi-0.dtd"
   xmlns="http://www.w3.org/2000/svg"
   xmlns:svg="http://www.w3.org/2000/svg"><defs
     id="defs1" /><sodipodi:namedview
     id="namedview1"
     pagecolor="#ffffff"
     bordercolor="#000000"
     borderopacity="0.25"
     inkscape:showpageshadow="2"
     inkscape:pageopacity="0.0"
     inkscape:pagecheckerboard="0"
     inkscape:deskcolor="#d1d1d1"
     inkscape:zoom="2.2792969"
     inkscape:cx="290.87918"
     inkscape:cy="127.89032"
     inkscape:window-width="2560"
     inkscape:window-height="1369"
     inkscape:window-x="-8"
     inkscape:window-y="-8"
     inkscape:window-maximized="1"
     inkscape:current-layer="svg1" /><path
     d="m 25.6,153.6 h 51.2 c 42.43,-0.02 76.78,-34.37 76.8,-76.8 C 153.58,34.37 119.23,0.02 76.8,0 H 25.6 C 18.86,0 12.26,2.73 7.5,7.5 2.74,12.27 0,18.86 0,25.6 v 204.8 c 0,14.14 11.46,25.6 25.6,25.6 14.14,0 25.6,-11.46 25.6,-25.6 V 51.2 h 25.6 c 14.13,0.03 25.57,11.47 25.6,25.6 -0.03,14.13 -11.47,25.57 -25.6,25.6 H 25.6 C 11.46,102.4 0,113.86 0,128 c 0,14.14 11.46,25.6 25.6,25.6 M 256,25.6 v 25.6 c 14.13,0.03 25.57,11.47 25.6,25.6 v 102.4 c -0.03,14.13 -11.47,25.57 -25.6,25.6 -14.13,-0.03 -25.57,-11.47 -25.6,-25.6 V 76.8 C 230.43,62.67 241.87,51.23 256,51.2 Z m 0,0 V 0 c -42.43,0.02 -76.78,34.37 -76.8,76.8 v 102.4 c 0.02,42.43 34.37,76.78 76.8,76.8 42.43,-0.02 76.78,-34.37 76.8,-76.8 V 76.8 C 332.78,34.37 298.43,0.02 256,0 Z m 102.4,179.2 c 0.02,28.29 22.91,51.18 51.2,51.2 h 51.2 c 28.29,-0.02 51.18,-22.91 51.2,-51.2 v -51.2 c -0.02,-28.29 -22.91,-51.18 -51.2,-51.2 H 409.6 V 51.2 h 51.2 c 0,14.14 11.46,25.6 25.6,25.6 C 500.54,76.8 512,65.34 512,51.2 511.98,22.91 489.09,0.02 460.8,0 h -51.2 c -28.29,0.02 -51.18,22.91 -51.2,51.2 v 51.2 c 0.02,28.29 22.91,51.18 51.2,51.2 h 51.2 v 51.2 h -51.2 c 0,-14.14 -11.46,-25.6 -25.6,-25.6 -14.14,0 -25.6,11.46 -25.6,25.6"
     id="path1" /><path
     d="m 383.63256,153.8108 m 179.2,-102.4 h 102.4 c 14.14,0 25.6,-11.46 25.6,-25.6 0,-14.14 -11.46,-25.6 -25.6,-25.6 h -102.4 c -14.14,0 -25.6,11.46 -25.6,25.6 0,14.14 11.46,25.6 25.6,25.6"
     id="path2" /><path
     d="m 588.43256,25.8108 v 204.8 c 0,14.14 11.46,25.6 25.6,25.6 14.14,0 25.6,-11.46 25.6,-25.6 v -204.8 c 0,-14.14 -11.46,-25.6 -25.6,-25.6 -14.14,0 -25.6,11.46 -25.6,25.6"
     id="path3" /></svg>
