<svg xmlns="http://www.w3.org/2000/svg" xml:space="preserve" viewBox="0 0 512 512"><path d="M25.6 281.6h51.2c42.43-.02 76.78-34.37 76.8-76.8-.02-42.43-34.37-76.78-76.8-76.8H25.6c-6.74 0-13.34 2.73-18.1 7.5S0 146.86 0 153.6v204.8C0 372.54 11.46 384 25.6 384s25.6-11.46 25.6-25.6V179.2h25.6c14.13.03 25.57 11.47 25.6 25.6-.03 14.13-11.47 25.57-25.6 25.6H25.6C11.46 230.4 0 241.86 0 256s11.46 25.6 25.6 25.6M256 153.6v25.6c14.13.03 25.57 11.47 25.6 25.6v102.4c-.03 14.13-11.47 25.57-25.6 25.6-14.13-.03-25.57-11.47-25.6-25.6V204.8c.03-14.13 11.47-25.57 25.6-25.6zV128c-42.43.02-76.78 34.37-76.8 76.8v102.4c.02 42.43 34.37 76.78 76.8 76.8 42.43-.02 76.78-34.37 76.8-76.8V204.8c-.02-42.43-34.37-76.78-76.8-76.8zM358.4 332.8c.02 28.29 22.91 51.18 51.2 51.2h51.2c28.29-.02 51.18-22.91 51.2-51.2v-51.2c-.02-28.29-22.91-51.18-51.2-51.2h-51.2v-51.2h51.2c0 14.14 11.46 25.6 25.6 25.6s25.6-11.46 25.6-25.6c-.02-28.29-22.91-51.18-51.2-51.2h-51.2c-28.29.02-51.18 22.91-51.2 51.2v51.2c.02 28.29 22.91 51.18 51.2 51.2h51.2v51.2h-51.2c0-14.14-11.46-25.6-25.6-25.6s-25.6 11.46-25.6 25.6"/></svg>