<svg xmlns="http://www.w3.org/2000/svg" xml:space="preserve" viewBox="0 0 512 512"><path d="M128 128H76.8C34.37 128.02.02 162.37 0 204.8v102.4c.02 42.43 34.37 76.78 76.8 76.8H128c6.74 0 13.34-2.73 18.1-7.5 4.77-4.77 7.5-11.36 7.5-18.1V256c0-6.74-2.73-13.34-7.5-18.1-4.77-4.77-11.36-7.5-18.1-7.5h-25.6c-14.14 0-25.6 11.46-25.6 25.6s11.46 25.6 25.6 25.6v51.2H76.8c-14.13-.03-25.57-11.47-25.6-25.6V204.8c.03-14.13 11.47-25.57 25.6-25.6H128c14.14 0 25.6-11.46 25.6-25.6S142.14 128 128 128M307.2 128H204.8c-6.74 0-13.34 2.73-18.1 7.5-4.77 4.77-7.5 11.36-7.5 18.1v204.8c0 6.74 2.73 13.34 7.5 18.1 4.77 4.77 11.36 7.5 18.1 7.5h102.4c14.14 0 25.6-11.46 25.6-25.6s-11.46-25.6-25.6-25.6h-76.8V179.2h76.8c14.14 0 25.6-11.46 25.6-25.6S321.34 128 307.2 128"/><path d="M204.8 281.6h64c14.14 0 25.6-11.46 25.6-25.6s-11.46-25.6-25.6-25.6h-64c-14.14 0-25.6 11.46-25.6 25.6s11.46 25.6 25.6 25.6M384 179.2h102.4c14.14 0 25.6-11.46 25.6-25.6S500.54 128 486.4 128H384c-14.14 0-25.6 11.46-25.6 25.6s11.46 25.6 25.6 25.6"/><path d="M409.6 153.6v204.8c0 14.14 11.46 25.6 25.6 25.6s25.6-11.46 25.6-25.6V153.6c0-14.14-11.46-25.6-25.6-25.6s-25.6 11.46-25.6 25.6"/></svg>